<?xml version="1.0" standalone="no"?>
<!DOCTYPE svg PUBLIC "-//W3C//DTD SVG 20010904//EN"
 "http://www.w3.org/TR/2001/REC-SVG-20010904/DTD/svg10.dtd">
<svg version="1.0" xmlns="http://www.w3.org/2000/svg"
 width="327.000000pt" height="69.000000pt" viewBox="0 0 327.000000 69.000000"
 preserveAspectRatio="xMidYMid meet">
<metadata>
Created by potrace 1.14, written by Peter Selinger 2001-2017
</metadata>
<g transform="translate(0.000000,69.000000) scale(0.100000,-0.100000)"
fill="#3498db" stroke="none">
<path d="M29 671 l-24 -19 0 -302 0 -302 24 -19 c21 -17 41 -19 182 -19 87 0
181 5 208 11 71 15 129 68 145 133 23 89 -5 162 -77 201 -20 11 -37 22 -37 25
0 3 14 13 30 22 54 31 77 126 45 187 -20 39 -69 78 -113 91 -20 5 -110 10
-198 10 -144 0 -164 -2 -185 -19z m322 -101 c47 -13 68 -54 47 -96 -20 -43
-52 -54 -160 -54 l-98 0 0 80 0 80 88 0 c48 0 103 -5 123 -10z m46 -276 c21
-16 29 -31 31 -62 6 -87 -36 -112 -188 -112 l-100 0 0 101 0 101 114 -4 c98
-2 119 -6 143 -24z"/>
<path d="M706 504 c-25 -25 -28 -53 -25 -226 4 -141 7 -168 24 -197 29 -49 67
-73 123 -79 61 -5 113 11 158 50 29 26 34 27 34 11 0 -33 29 -63 60 -63 55 0
60 20 60 262 0 205 -1 219 -20 238 -11 11 -30 20 -42 20 -57 -1 -68 -33 -68
-195 0 -151 -9 -184 -60 -210 -54 -28 -99 -15 -125 35 -11 22 -15 65 -15 180
0 137 -2 152 -20 170 -24 24 -63 26 -84 4z"/>
<path d="M1396 504 c-60 -22 -101 -58 -130 -116 -54 -107 -25 -269 58 -333 95
-72 237 -73 330 -1 115 88 117 323 4 409 -71 55 -179 72 -262 41z m154 -99
c44 -23 64 -69 65 -145 0 -101 -46 -160 -126 -160 -73 0 -122 64 -123 160 -1
124 88 194 184 145z"/>
<path d="M1867 502 c-15 -16 -17 -46 -17 -244 0 -205 2 -226 18 -241 25 -23
58 -21 82 3 17 17 20 34 21 123 0 56 2 111 4 122 2 11 6 38 10 60 11 73 59
100 133 74 85 -29 110 72 27 107 -60 25 -103 18 -140 -20 l-32 -34 -14 31
c-17 39 -65 49 -92 19z"/>
<path d="M2368 510 c-77 -23 -118 -72 -118 -140 0 -66 41 -100 170 -140 58
-18 111 -37 118 -43 7 -6 12 -24 10 -41 -4 -41 -38 -58 -103 -53 -45 4 -54 9
-91 52 -34 38 -47 46 -70 43 -21 -2 -31 -11 -39 -31 -14 -41 18 -95 75 -127
39 -22 57 -25 135 -25 105 0 156 20 192 74 68 102 25 186 -117 227 -172 51
-181 57 -162 99 8 16 23 26 46 31 52 9 83 -2 126 -46 43 -43 46 -45 84 -30 65
24 6 125 -88 149 -51 12 -128 13 -168 1z"/>
<path d="M2916 504 c-103 -37 -156 -121 -156 -244 0 -62 5 -86 26 -129 84
-167 340 -177 439 -17 26 43 30 61 34 132 3 71 0 90 -22 137 -27 60 -71 99
-136 122 -54 19 -133 18 -185 -1z m154 -99 c44 -23 64 -69 65 -145 0 -101 -46
-160 -126 -160 -75 0 -122 62 -123 160 -1 124 88 194 184 145z"/>
</g>
</svg>
