<?xml version="1.0" standalone="no"?>
<!DOCTYPE svg PUBLIC "-//W3C//DTD SVG 20010904//EN"
 "http://www.w3.org/TR/2001/REC-SVG-20010904/DTD/svg10.dtd">
<svg version="1.0" xmlns="http://www.w3.org/2000/svg"
 width="297.000000pt" height="69.000000pt" viewBox="0 0 297.000000 69.000000"
 preserveAspectRatio="xMidYMid meet">
<title>Buorso Logo</title>
<metadata>
Created by potrace 1.15, written by Peter Selinger 2001-2017
</metadata>
<g transform="translate(0.000000,69.000000) scale(0.100000,-0.100000)"
fill="#3498db" stroke="none">
<path d="M29 671 l-24 -19 0 -302 0 -302 24 -19 c21 -17 41 -19 182 -19 87 0
181 5 208 11 71 15 129 68 145 133 23 89 -5 162 -77 201 -20 11 -37 22 -37 25
0 3 13 12 29 22 44 25 64 71 59 136 -4 49 -10 60 -45 93 -22 20 -58 42 -79 48
-22 6 -112 11 -200 11 -144 0 -164 -2 -185 -19z m322 -101 c47 -13 68 -54 47
-96 -20 -43 -52 -54 -160 -54 l-98 0 0 80 0 80 88 0 c48 0 103 -5 123 -10z
m46 -276 c21 -16 29 -31 31 -62 6 -87 -36 -112 -188 -112 l-100 0 0 101 0 101
114 -4 c98 -2 119 -6 143 -24z"/>
<path d="M626 504 c-25 -25 -28 -53 -25 -226 4 -141 7 -168 24 -197 29 -49 67
-73 123 -79 61 -5 113 11 158 50 29 26 34 27 34 11 0 -33 29 -63 60 -63 55 0
60 20 60 262 0 205 -1 219 -20 238 -11 11 -30 20 -42 20 -57 -1 -68 -33 -68
-195 0 -151 -9 -184 -60 -210 -41 -21 -75 -19 -107 9 l-28 24 -5 172 c-5 155
-7 173 -24 186 -26 18 -61 18 -80 -2z"/>
<path d="M1256 505 c-104 -40 -156 -122 -156 -245 0 -62 5 -86 26 -129 46 -92
139 -139 254 -128 138 12 224 113 222 260 -2 107 -38 176 -118 223 -57 34
-166 42 -228 19z m154 -100 c44 -23 64 -69 65 -145 0 -101 -46 -160 -126 -160
-73 0 -122 64 -123 160 -1 125 88 195 184 145z"/>
<path d="M1657 502 c-15 -16 -17 -46 -17 -244 0 -205 2 -226 18 -241 25 -23
58 -21 82 3 17 17 20 34 21 123 0 56 2 111 4 122 2 11 6 38 10 60 11 73 61
101 131 75 35 -14 63 -4 75 27 12 33 -4 61 -46 79 -60 25 -103 18 -140 -20
l-32 -34 -14 31 c-17 39 -65 49 -92 19z"/>
<path d="M2128 510 c-77 -23 -118 -72 -118 -140 0 -66 41 -100 170 -140 58
-18 111 -37 118 -43 7 -6 12 -24 10 -41 -4 -41 -38 -58 -103 -53 -45 4 -54 9
-91 52 -34 38 -47 46 -70 43 -21 -2 -31 -11 -39 -31 -14 -41 18 -95 75 -127
39 -22 57 -25 135 -25 68 0 99 5 128 19 51 25 88 76 94 129 8 79 -46 129 -174
162 -98 25 -123 36 -133 55 -13 25 -4 45 26 59 52 23 116 5 147 -43 21 -31 47
-39 81 -27 35 14 35 58 0 100 -42 50 -173 76 -256 51z"/>
<path d="M2616 505 c-61 -23 -102 -60 -130 -117 -54 -107 -25 -269 58 -333
105 -80 262 -71 351 21 48 49 68 105 67 187 -1 107 -46 188 -126 229 -53 27
-165 34 -220 13z m154 -100 c44 -23 64 -69 65 -145 0 -100 -46 -160 -125 -160
-42 0 -72 17 -99 55 -47 70 -22 222 43 253 31 16 83 14 116 -3z"/>
</g>
</svg>
